<?xml version="1.0" encoding="utf-8"?>
<!-- Generator: Adobe Illustrator 15.0.0, SVG Export Plug-In . SVG Version: 6.00 Build 0)  -->
<!DOCTYPE svg PUBLIC "-//W3C//DTD SVG 1.1//EN" "http://www.w3.org/Graphics/SVG/1.1/DTD/svg11.dtd">
<svg version="1.1" id="Layer_1" xmlns="http://www.w3.org/2000/svg" xmlns:xlink="http://www.w3.org/1999/xlink" x="0px" y="0px"
	 width="720px" height="719.997px" viewBox="0 0 720 719.997" enable-background="new 0 0 720 719.997" xml:space="preserve">
<rect x="328.5" y="-20.779" transform="matrix(0.7071 0.7071 -0.7071 0.7071 356.9198 -141.6931)" width="42" height="761.555"/>
<g>
	<path d="M361,469.317c70.861,0,128.314-57.455,128.314-128.317c0-16.161-2.997-31.621-8.451-45.865L315.134,460.866
		C329.378,466.32,344.838,469.317,361,469.317z"/>
	<path d="M232.684,341c0,13.115,1.973,25.769,5.629,37.686l160.373-160.372c-11.918-3.657-24.571-5.63-37.687-5.63
		C290.137,212.684,232.684,270.138,232.684,341z"/>
	<path d="M580.975,195.023l-30.965,30.965c8.884,5.552,17.131,11.124,24.684,16.534c57.061,40.869,86.422,80.4,94.035,95.478
		c-7.621,15.077-36.976,54.61-94.035,95.477c-48.16,34.496-124.498,75.611-214.693,75.611c-28.91,0-56.394-4.229-81.984-11.104
		l-34.207,34.207c36.385,12.201,75.482,19.671,116.191,19.671c194.88,0,352.872-171.09,352.872-213.862
		C712.872,313.586,661.399,247.369,580.975,195.023z"/>
	<path d="M145.305,433.479C88.236,392.61,58.884,353.077,51.259,338c7.625-15.078,36.977-54.609,94.035-95.478
		c48.171-34.496,124.509-75.611,214.706-75.611c28.02,0,54.699,3.97,79.615,10.474l34.323-34.324
		C438.194,131.303,399.87,124.139,360,124.139c-194.881,0-352.872,171.089-352.872,213.862c0,24.23,50.702,89.632,130.083,141.788
		l30.935-30.936C159.964,443.686,152.333,438.512,145.305,433.479z"/>
</g>
</svg>
